<?xml version="1.0" encoding="iso-8859-1"?>
<!-- Generator: Adobe Illustrator 19.0.0, SVG Export Plug-In . SVG Version: 6.00 Build 0)  -->
<svg version="1.1" id="Capa_1" xmlns="http://www.w3.org/2000/svg" xmlns:xlink="http://www.w3.org/1999/xlink" x="0px" y="0px"
	 viewBox="0 0 448 448" style="enable-background:new 0 0 448 448;" xml:space="preserve">
<path style="fill:#D0E8CF;" d="M224,427.432c-110.544,0-165.168-23.904-178.624-36.544l-7.664-7.216l9.008-5.456
	c0.608-0.352,1.216-0.72,1.84-1.072l-3.376-7.424l64.176-89.312l5.248,1.296c66.624,16.4,152.144,16.4,218.768,0l5.248-1.296
	l60.4,84.16l-4.128,10.112c2.32,1.12,4.432,2.288,6.4,3.44l9.056,5.424l-7.664,7.264C389.328,403.48,334.768,427.432,224,427.432z"
	/>
<ellipse style="fill:#B1DAAF;" cx="228.176" cy="385.992" rx="180.176" ry="41.424"/>
<path style="fill:#FFFFFF;" d="M224,180.568c-81.664,0-116.176-32.896-117.6-34.288l-2.4-2.352v-3.36c0-66.176,53.824-120,120-120
	s120,53.824,120,120v3.36l-2.4,2.352C340.176,147.672,305.664,180.568,224,180.568z"/>
<path style="fill:#8BCB96;" d="M224,212.568c-28.784,0-56-42.768-56-88c0-30.88,25.12-56,56-56s56,25.12,56,56
	C280,169.8,252.784,212.568,224,212.568z"/>
<path style="fill:#010101;" d="M224,76.568c26.464,0,48,21.536,48,48c0,40.368-23.776,80-48,80s-48-39.632-48-80
	C176,98.104,197.536,76.568,224,76.568 M224,60.568c-35.344,0-64,28.656-64,64c0,48,28.656,96,64,96s64-48,64-96
	C288,89.224,259.344,60.568,224,60.568z"/>
<path style="fill:#8090A2;" d="M224,294.232c-117.072,0-216-40.304-216-88c0-26.608,32-52.624,85.584-69.632L104,133.304v10.624
	l2.4,2.368c1.408,1.36,36.288,34.272,117.6,34.272s116.192-32.912,117.648-34.32l2.352-2.32v-10.624l10.416,3.296
	C408,153.592,440,179.608,440,206.232C440,253.928,341.072,294.232,224,294.232z"/>
<circle style="fill:#FFFFFF;" cx="224" cy="236.568" r="24"/>
<path style="fill:#010101;" d="M224,220.568c8.816,0,16,7.184,16,16s-7.184,16-16,16s-16-7.184-16-16S215.184,220.568,224,220.568
	 M224,204.568c-17.68,0-32,14.32-32,32s14.32,32,32,32s32-14.32,32-32S241.68,204.568,224,204.568z"/>
<circle style="fill:#FFFFFF;" cx="96" cy="212.568" r="24"/>
<path style="fill:#010101;" d="M96,196.568c8.816,0,16,7.184,16,16c0,8.816-7.184,16-16,16s-16-7.184-16-16
	C80,203.752,87.184,196.568,96,196.568 M96,180.568c-17.68,0-32,14.32-32,32s14.32,32,32,32s32-14.32,32-32
	S113.68,180.568,96,180.568z"/>
<circle style="fill:#FFFFFF;" cx="352" cy="212.568" r="24"/>
<g>
	<path style="fill:#010101;" d="M352,196.568c8.816,0,16,7.184,16,16c0,8.816-7.184,16-16,16s-16-7.184-16-16
		C336,203.752,343.184,196.568,352,196.568 M352,180.568c-17.68,0-32,14.32-32,32s14.32,32,32,32s32-14.32,32-32
		S369.68,180.568,352,180.568z"/>
	
		<ellipse transform="matrix(-0.853 -0.522 0.522 -0.853 295.2361 357.0375)" style="fill:#010101;" cx="197.906" cy="136.935" rx="20.257" ry="10.128"/>
	
		<ellipse transform="matrix(-0.5219 -0.853 0.853 -0.5219 263.6431 421.6883)" style="fill:#010101;" cx="249.997" cy="136.96" rx="10.128" ry="20.256"/>
	<path style="fill:#010101;" d="M448,206.232c0-32.736-38.304-61.616-96.688-78.944C344.64,62.92,290.096,12.568,224,12.568
		S103.36,62.92,96.688,127.288C38.304,144.616,0,173.48,0,206.232c0,32.64,38.096,61.44,96.192,78.784l-58.16,81.936
		C34.144,371.304,32,375.864,32,380.568c0,30.304,85.968,54.864,192,54.864s192-24.56,192-54.864c0-4.704-2.144-9.264-6.048-13.616
		l-58.16-81.936C409.904,267.672,448,238.872,448,206.232z M224,28.568c61.856,0,112,50.144,112,112c0,0-32.672,32-112,32
		s-112-32-112-32C112,78.712,162.144,28.568,224,28.568z M389.952,365.656l-5.376,13.184c4.864,1.984,9.088,4.048,12.624,6.16
		c-12.48,11.808-67.664,34.432-173.216,34.432c-105.392,0-160.56-22.544-173.136-34.368c2.416-1.456,5.056-2.896,8.144-4.288
		l-4.608-10.144l58.32-81.152c32.816,8.08,70.752,12.768,111.296,12.768s78.464-4.688,111.28-12.752L389.952,365.656z M224,286.232
		c-122.576,0-208-42.16-208-80c0-22.48,31.216-46.528,80-62v3.056l4.8,4.704c1.536,1.504,38.32,36.576,123.2,36.576
		s121.664-35.072,123.2-36.576l4.8-4.704v-3.056c48.784,15.456,80,39.52,80,62C432,244.056,346.576,286.232,224,286.232z"/>
	<path style="fill:#010101;" d="M171.104,358.424l-1.184-15.968c-5.36,0.4-10.64,0.848-15.808,1.344l1.568,15.936
		C160.72,359.24,165.872,358.808,171.104,358.424z"/>
	<path style="fill:#010101;" d="M249.136,340.952c-5.216-0.176-10.496-0.288-15.84-0.336l-0.192,16
		c5.216,0.064,10.4,0.176,15.504,0.336L249.136,340.952z"/>
	<path style="fill:#010101;" d="M288.704,343.336c-5.168-0.448-10.448-0.88-15.824-1.216l-1.024,15.968
		c5.248,0.336,10.4,0.736,15.456,1.184L288.704,343.336z"/>
	<path style="fill:#010101;" d="M209.808,356.696l-0.288-16c-5.344,0.096-10.64,0.256-15.84,0.448l0.624,16
		C199.424,356.936,204.592,356.792,209.808,356.696z"/>
	<path style="fill:#010101;" d="M117.376,364.76c4.912-0.848,10-1.648,15.248-2.352l-2.192-15.84
		c-5.44,0.752-10.688,1.552-15.776,2.416L117.376,364.76z"/>
	<path style="fill:#010101;" d="M351.744,352.536l-3.44,15.632c5.2,1.136,10.176,2.336,14.848,3.632l4.224-15.44
		C362.448,355,357.232,353.736,351.744,352.536z"/>
	<path style="fill:#010101;" d="M312.416,345.864l-2.064,15.872c5.248,0.672,10.336,1.392,15.264,2.192l2.56-15.776
		C323.088,347.32,317.824,346.568,312.416,345.864z"/>
	<path style="fill:#010101;" d="M80.032,373.128c4.624-1.344,9.552-2.64,14.752-3.872l-3.68-15.568
		c-5.488,1.296-10.688,2.656-15.568,4.096L80.032,373.128z"/>
</g>
<g>
</g>
<g>
</g>
<g>
</g>
<g>
</g>
<g>
</g>
<g>
</g>
<g>
</g>
<g>
</g>
<g>
</g>
<g>
</g>
<g>
</g>
<g>
</g>
<g>
</g>
<g>
</g>
<g>
</g>
</svg>
